<svg viewBox="0 0 80 80" xmlns="http://www.w3.org/2000/svg">
  <defs>
    <radialGradient id="s" cx="50%" cy="50%" r="50%">
      <stop offset="0%" stop-color="#FFE08A"/>
      <stop offset="60%" stop-color="#FBBF24"/>
      <stop offset="100%" stop-color="#F59E0B"/>
    </radialGradient>
    <linearGradient id="p" x1="0" y1="0" x2="1" y2="1">
      <stop offset="0%" stop-color="#38BDF8"/>
      <stop offset="100%" stop-color="#1D4ED8"/>
    </linearGradient>
    <linearGradient id="v1" x1="0" y1="0" x2="0" y2="1">
      <stop offset="0%" stop-color="#34D399"/>
      <stop offset="100%" stop-color="#059669"/>
    </linearGradient>
    <linearGradient id="v2" x1="0" y1="0" x2="0" y2="1">
      <stop offset="0%" stop-color="#60A5FA"/>
      <stop offset="100%" stop-color="#1D4ED8"/>
    </linearGradient>
  </defs>
  <rect width="80" height="80" rx="16" fill="#0a192f"/>
  <g stroke="#FBBF24" stroke-width="1.6" stroke-linecap="round" opacity="0.85">
    <line x1="20" y1="6" x2="20" y2="11"/>
    <line x1="6" y1="20" x2="11" y2="20"/>
    <line x1="10" y1="10" x2="13.5" y2="13.5"/>
    <line x1="30" y1="10" x2="26.5" y2="13.5"/>
  </g>
  <circle cx="20" cy="20" r="9" fill="url(#s)"/>
  <g transform="rotate(-8 44 28)">
    <rect x="28" y="20" width="32" height="18" rx="2.5" fill="url(#p)"/>
    <g stroke="#1E3A8A" stroke-width="0.7" opacity="0.6">
      <line x1="28" y1="26" x2="60" y2="26"/>
      <line x1="28" y1="32" x2="60" y2="32"/>
      <line x1="36" y1="20" x2="36" y2="38"/>
      <line x1="44" y1="20" x2="44" y2="38"/>
      <line x1="52" y1="20" x2="52" y2="38"/>
    </g>
  </g>
  <path d="M12 46 L20 68 L28 46" fill="none" stroke="url(#v1)" stroke-width="4.5" stroke-linecap="round" stroke-linejoin="round"/>
  <path d="M30 46 L38 68 L46 46" fill="none" stroke="url(#v2)" stroke-width="4.5" stroke-linecap="round" stroke-linejoin="round"/>
  <path d="M48 60 C 54 58, 60 54, 64 46 C 60 56, 56 62, 50 64 Z" fill="#16A34A"/>
</svg>
